<?xml version="1.0" standalone="no"?>
<!DOCTYPE svg PUBLIC "-//W3C//DTD SVG 20010904//EN"
 "http://www.w3.org/TR/2001/REC-SVG-20010904/DTD/svg10.dtd">
<svg version="1.0" xmlns="http://www.w3.org/2000/svg"
 width="104.000000pt" height="99.000000pt" viewBox="0 0 104.000000 99.000000"
 preserveAspectRatio="xMidYMid meet">
<metadata>
Created by potrace 1.16, written by Peter Selinger 2001-2019
</metadata>
<g transform="translate(0.000000,99.000000) scale(0.100000,-0.100000)"
fill="#000000" stroke="none">
<path d="M230 675 l0 -45 95 0 c52 0 95 -4 95 -9 0 -5 -47 -64 -105 -132 -101
-120 -105 -126 -105 -171 l0 -48 255 0 c278 0 302 4 358 58 52 50 72 177 42
263 -19 52 -47 84 -97 110 -34 17 -61 19 -288 19 l-250 0 0 -45z m507 -78 c33
-32 46 -95 32 -152 -20 -77 -26 -80 -237 -83 -178 -3 -185 -3 -171 15 57 72
113 139 120 141 5 2 9 -22 9 -53 l0 -56 48 3 47 3 2 100 c1 55 2 104 3 109 0
5 28 6 61 3 47 -4 68 -11 86 -30z"/>
</g>
</svg>
